<svg width="33" height="29" viewBox="0 0 33 29" fill="none" xmlns="http://www.w3.org/2000/svg">
<path d="M28.0996 4.14206C27.4205 3.46271 26.6143 2.92381 25.7269 2.55613C24.8396 2.18845 23.8885 1.99921 22.928 1.99921C21.9675 1.99921 21.0164 2.18845 20.129 2.55613C19.2416 2.92381 18.4354 3.46271 17.7564 4.14206L16.3472 5.55128L14.9379 4.14206C13.5664 2.77047 11.7061 1.99992 9.76636 1.99992C7.82664 1.99992 5.96637 2.77047 4.59478 4.14206C3.22319 5.51365 2.45264 7.37392 2.45264 9.31364C2.45264 11.2534 3.22319 13.1136 4.59478 14.4852L6.004 15.8944L16.3472 26.2376L26.6903 15.8944L28.0996 14.4852C28.7789 13.8062 29.3178 13 29.6855 12.1126C30.0532 11.2253 30.2424 10.2742 30.2424 9.31364C30.2424 8.35312 30.0532 7.40202 29.6855 6.51466C29.3178 5.62731 28.7789 4.82108 28.0996 4.14206V4.14206Z" stroke="#555770" stroke-width="3.68157" stroke-linecap="round" stroke-linejoin="round"/>
</svg>
