<svg width="147" height="51" viewBox="0 0 147 51" fill="none" xmlns="http://www.w3.org/2000/svg">
<path d="M94.72 0V8.21085H92.3857V2.40044H54.6145V8.21085H52.2729V0H94.72Z" fill="white"/>
<path d="M94.72 42.7891V50.9999H52.2729V42.7891H54.6145V48.5995H92.3857V42.7891H94.72Z" fill="white"/>
<path d="M6.79124 14.8213C3.04183 14.8213 0 17.9396 0 21.7833C0 25.627 3.04183 28.7453 6.79124 28.7453C10.5406 28.7453 13.5825 25.627 13.5825 21.7833C13.5825 17.9396 10.5406 14.8213 6.79124 14.8213ZM6.90066 25.0437H4.81441V18.5154H6.90066C8.89207 18.5154 9.61423 19.9512 9.61423 21.7833C9.61423 23.6079 8.89207 25.0437 6.90066 25.0437Z" fill="white"/>
<path d="M6.90076 20.0483H6.39014V23.5181H6.90076C7.66669 23.5181 8.03871 23.0395 8.03871 21.7832C8.03871 20.5195 7.66669 20.0483 6.90076 20.0483Z" fill="white"/>
<path d="M40.1418 14.8213C36.3924 14.8213 33.3506 17.9396 33.3506 21.7833C33.3506 25.627 36.3924 28.7453 40.1418 28.7453C43.8912 28.7453 46.9331 25.627 46.9331 21.7833C46.9331 17.9396 43.8985 14.8213 40.1418 14.8213ZM42.5126 22.8901C42.5126 24.4231 41.5934 25.111 40.1491 25.111C38.7121 25.111 37.7857 24.4231 37.7857 22.8901V18.4481H39.3613V22.748C39.3613 23.3387 39.6458 23.578 40.1564 23.578C40.6743 23.578 40.9588 23.3387 40.9588 22.748V18.4481H42.5271V22.8901H42.5126Z" fill="white"/>
<path d="M56.8244 14.8213C53.075 14.8213 50.0332 17.9396 50.0332 21.7833C50.0332 25.627 53.075 28.7453 56.8244 28.7453C60.5738 28.7453 63.6157 25.627 63.6157 21.7833C63.6157 17.9396 60.5738 14.8213 56.8244 14.8213ZM57.7508 25.0437L56.6567 22.4937H56.2555V25.0437H54.6798V18.5154H56.2555V21.0729H56.6494L57.6925 18.5154H59.5088L58.0062 21.7833L59.5599 25.0512H57.7508V25.0437Z" fill="white"/>
<path d="M73.4996 20.2129C73.4267 20.7364 73.3391 21.1925 73.2297 21.6188L72.9233 22.7405H74.0905L73.7914 21.6188C73.6674 21.1925 73.5726 20.7364 73.4996 20.2129Z" fill="white"/>
<path d="M73.4997 14.8213C69.7503 14.8213 66.7085 17.9396 66.7085 21.7833C66.7085 25.627 69.7503 28.7453 73.4997 28.7453C77.2492 28.7453 80.291 25.627 80.291 21.7833C80.291 17.9396 77.2492 14.8213 73.4997 14.8213ZM74.6742 25.0437L74.4116 24.0641H72.6025L72.3399 25.0437H70.684L72.7046 18.5154H74.2876L76.3082 25.0437H74.6742Z" fill="white"/>
<path d="M106.851 14.8213C103.101 14.8213 100.06 17.9396 100.06 21.7833C100.06 25.627 103.101 28.7453 106.851 28.7453C110.6 28.7453 113.642 25.627 113.642 21.7833C113.642 17.9396 110.6 14.8213 106.851 14.8213ZM109.222 25.0437H107.799L105.91 21.3496C106.012 21.903 106.063 22.4489 106.063 23.0546V25.0437H104.487V18.5154H105.917L107.799 22.2096C107.712 21.6562 107.653 21.1028 107.653 20.5046V18.5154H109.222V25.0437Z" fill="white"/>
<path d="M123.526 14.8213C119.777 14.8213 116.735 17.9396 116.735 21.7833C116.735 25.627 119.777 28.7453 123.526 28.7453C127.275 28.7453 130.317 25.627 130.317 21.7833C130.317 17.9396 127.283 14.8213 123.526 14.8213ZM124.314 25.0437H122.738V18.5154H124.314V25.0437Z" fill="white"/>
<path d="M140.209 20.2129C140.136 20.7364 140.048 21.1925 139.939 21.6188L139.632 22.7405H140.799L140.5 21.6188C140.376 21.1925 140.282 20.7364 140.209 20.2129Z" fill="white"/>
<path d="M140.209 14.8213C136.459 14.8213 133.417 17.9396 133.417 21.7833C133.417 25.627 136.459 28.7453 140.209 28.7453C143.958 28.7453 147 25.627 147 21.7833C147 17.9396 143.958 14.8213 140.209 14.8213ZM141.383 25.0437L141.121 24.0641H139.311L139.049 25.0437H137.4L139.421 18.5154H141.004L143.024 25.0437H141.383Z" fill="white"/>
<path d="M23.4665 14.8213C19.7171 14.8213 16.6753 17.9396 16.6753 21.7833C16.6753 25.627 19.7171 28.7453 23.4665 28.7453C27.2159 28.7453 30.2578 25.627 30.2578 21.7833C30.2578 17.9396 27.2159 14.8213 23.4665 14.8213ZM24.8087 25.0437L23.8021 22.92L23.503 22.2619C23.503 22.2619 23.5687 22.2395 23.6562 22.1946C23.7656 22.1423 23.9188 22.0675 24.0355 22.0077L24.1668 21.9254C24.5753 21.6487 24.7285 21.3496 24.7285 20.7513C24.7285 20.2728 24.4367 20.011 23.9917 20.011H23.2623V25.0512H21.6867V18.5229H24.0501C25.2756 18.5229 26.2968 19.2408 26.2968 20.7214C26.2968 21.6562 25.9321 22.3068 25.3121 22.6433L26.5011 25.0512H24.8087V25.0437Z" fill="white"/>
<path d="M90.1755 14.8213C86.4261 14.8213 83.3843 17.9396 83.3843 21.7833C83.3843 25.627 86.4261 28.7453 90.1755 28.7453C93.9249 28.7453 96.9668 25.627 96.9668 21.7833C96.9668 17.9396 93.9249 14.8213 90.1755 14.8213ZM91.2916 25.0437L90.2849 22.92L89.9859 22.2619C89.9859 22.2619 90.0515 22.2395 90.139 22.1946C90.2485 22.1423 90.4016 22.0675 90.5184 22.0077L90.6497 21.9254C91.0582 21.6487 91.2113 21.3496 91.2113 20.7513C91.2113 20.2728 90.9196 20.011 90.4746 20.011H89.7451V25.0512H88.1695V18.5229H90.533C91.7584 18.5229 92.7797 19.2408 92.7797 20.7214C92.7797 21.6562 92.4149 22.3068 91.7949 22.6433L92.9839 25.0512H91.2916V25.0437Z" fill="white"/>
<path d="M10.5991 34.3613C10.5991 33.434 11.2556 32.7385 12.1309 32.7385C12.4446 32.7385 12.5905 32.7759 12.9844 32.9554C13.0573 32.8507 13.123 32.8208 13.2178 32.8208C13.3199 32.8208 13.4075 32.8731 13.4585 32.9554C13.495 33.0077 13.495 33.0526 13.495 33.1947V33.6808C13.495 33.8303 13.4804 33.8901 13.4439 33.9425C13.3856 34.0173 13.3053 34.0621 13.2105 34.0621C13.05 34.0621 12.9698 33.9799 12.9333 33.7555C12.9041 33.6209 12.8458 33.5387 12.6853 33.4489C12.5321 33.3592 12.3279 33.3143 12.1382 33.3143C11.5619 33.3143 11.1462 33.7555 11.1462 34.3613V34.7277C11.1462 35.3035 11.5765 35.6774 12.2549 35.6774C12.5102 35.6774 12.7364 35.6325 12.875 35.5428C12.9333 35.5054 12.9333 35.5054 13.0865 35.3484C13.1449 35.2885 13.2178 35.2586 13.2908 35.2586C13.4439 35.2586 13.5679 35.3932 13.5679 35.5428C13.5679 35.6774 13.4658 35.8269 13.2689 35.9615C13.0209 36.1485 12.6488 36.2457 12.2403 36.2457C11.2775 36.2457 10.5845 35.6101 10.5845 34.7277V34.3613H10.5991Z" fill="white"/>
<path d="M16.595 35.6027H17.1639C17.3171 35.6027 17.3609 35.6177 17.4192 35.6551C17.4995 35.7149 17.536 35.7971 17.536 35.8943C17.536 36.0813 17.412 36.186 17.1639 36.186H15.4643C15.2163 36.186 15.0923 36.0888 15.0923 35.8943C15.0923 35.7971 15.1433 35.6999 15.2236 35.6476C15.2746 35.6102 15.3111 35.6102 15.457 35.6102H16.026V33.4042H15.4643C15.3257 33.4042 15.2601 33.3892 15.209 33.3518C15.1433 33.292 15.0996 33.2097 15.0996 33.1125C15.0996 33.0153 15.1506 32.9181 15.2309 32.8658C15.2819 32.8284 15.3184 32.8284 15.4643 32.8284H17.1639C17.3171 32.8284 17.3609 32.8433 17.4192 32.8807C17.4995 32.9405 17.536 33.0228 17.536 33.12C17.536 33.2172 17.4849 33.307 17.3974 33.3668C17.3536 33.3967 17.2879 33.4042 17.1639 33.4042H16.595V35.6027Z" fill="white"/>
<path d="M21.3511 33.3966H21.2125C21.0593 33.3966 21.0155 33.3817 20.9571 33.3443C20.8842 33.2844 20.8477 33.2022 20.8477 33.105C20.8477 33.0078 20.8988 32.9105 20.979 32.8582C21.0301 32.8208 21.0666 32.8208 21.2125 32.8208H21.9565C22.1024 32.8208 22.1607 32.8358 22.2118 32.8731C22.2775 32.933 22.3212 33.0152 22.3212 33.1124C22.3212 33.2246 22.2483 33.3443 22.1462 33.3742C22.0951 33.3891 22.0586 33.3966 21.9346 33.3966L20.7821 36.1784H20.2277L19.0897 33.3966C18.9657 33.3966 18.9293 33.3891 18.8782 33.3742C18.7761 33.3368 18.7031 33.2246 18.7031 33.1124C18.7031 33.0152 18.7542 32.918 18.8344 32.8657C18.8855 32.8283 18.922 32.8283 19.0679 32.8283H19.8119C19.9578 32.8283 20.0161 32.8432 20.0672 32.8806C20.1329 32.9405 20.1766 33.0227 20.1766 33.1199C20.1766 33.2171 20.1256 33.3144 20.0453 33.3667C19.9943 33.3966 19.9505 33.4041 19.8119 33.4041H19.7025L20.5122 35.3559L21.3511 33.3966Z" fill="white"/>
<path d="M25.0129 35.6027H25.5819C25.7351 35.6027 25.7789 35.6177 25.8372 35.6551C25.9175 35.7149 25.9539 35.7971 25.9539 35.8943C25.9539 36.0813 25.8299 36.186 25.5819 36.186H23.8823C23.6343 36.186 23.5103 36.0888 23.5103 35.8943C23.5103 35.7971 23.5613 35.6999 23.6416 35.6476C23.6926 35.6102 23.7291 35.6102 23.875 35.6102H24.444V33.4042H23.875C23.7364 33.4042 23.6707 33.3892 23.6197 33.3518C23.554 33.292 23.5103 33.2097 23.5103 33.1125C23.5103 33.0153 23.5613 32.9181 23.6416 32.8658C23.6926 32.8284 23.7291 32.8284 23.875 32.8284H25.5746C25.7278 32.8284 25.7716 32.8433 25.8299 32.8807C25.9102 32.9405 25.9466 33.0228 25.9466 33.12C25.9466 33.2172 25.8956 33.307 25.808 33.3668C25.7643 33.3967 25.6986 33.4042 25.5746 33.4042H25.0056V35.6027H25.0129Z" fill="white"/>
<path d="M28.6971 35.6027H29.908V35.0718C29.908 34.9073 29.9226 34.8624 29.959 34.81C30.0174 34.7278 30.0976 34.6904 30.1925 34.6904C30.2946 34.6904 30.3748 34.7427 30.4332 34.8325C30.4697 34.8848 30.4697 34.9372 30.4697 35.0792V36.186H27.8217C27.5737 36.186 27.4497 36.0888 27.4497 35.8943C27.4497 35.7897 27.5008 35.6999 27.5883 35.6476C27.6394 35.6102 27.6758 35.6102 27.8217 35.6102H28.1427V33.4042H27.8217C27.6831 33.4042 27.6175 33.3892 27.5664 33.3518C27.4935 33.292 27.457 33.2097 27.457 33.1125C27.457 33.0153 27.5081 32.9181 27.5956 32.8658C27.6467 32.8284 27.6831 32.8284 27.829 32.8284H29.0326C29.1858 32.8284 29.2296 32.8433 29.2879 32.8807C29.3682 32.9405 29.4047 33.0228 29.4047 33.12C29.4047 33.2172 29.3536 33.307 29.2733 33.3668C29.2296 33.3967 29.1639 33.4042 29.0399 33.4042H28.719V35.6027H28.6971Z" fill="white"/>
<path d="M38.5882 33.6286C38.5882 33.7931 38.5736 33.838 38.5372 33.8904C38.4788 33.9726 38.3986 34.01 38.311 34.01C38.2308 34.01 38.1506 33.9726 38.1068 33.9277C38.0703 33.8829 38.0703 33.8829 38.0265 33.6959C37.9755 33.4641 37.7056 33.3071 37.3554 33.3071C36.998 33.3071 36.7208 33.494 36.7208 33.7483C36.7208 33.8679 36.8084 34.0025 36.9324 34.0623C37.0418 34.1222 37.071 34.1297 37.494 34.2119C37.9828 34.3016 38.1943 34.3839 38.3694 34.526C38.5955 34.7129 38.6976 34.9373 38.6976 35.2439C38.6976 35.8421 38.1797 36.2459 37.4138 36.2459C37.1074 36.2459 36.8156 36.1711 36.5385 36.0216C36.4436 36.1338 36.3999 36.1562 36.3123 36.1562C36.1154 36.1562 36.0278 36.0365 36.0278 35.7748V35.3934C36.0278 35.1317 36.1154 35.0121 36.3123 35.0121C36.3926 35.0121 36.4655 35.042 36.5166 35.0943C36.553 35.1317 36.553 35.1317 36.6041 35.2887C36.6625 35.4981 37.0053 35.6626 37.3846 35.6626C37.8077 35.6626 38.1287 35.4757 38.1287 35.2214C38.1287 35.1018 38.0484 34.9821 37.9244 34.9148C37.8077 34.855 37.7129 34.8251 37.3336 34.7578C36.9688 34.698 36.7865 34.6382 36.6114 34.5335C36.3269 34.3689 36.1518 34.0624 36.1518 33.7333C36.1518 33.1426 36.6698 32.7163 37.37 32.7163C37.6545 32.7163 37.9025 32.7761 38.0995 32.9033C38.1578 32.7612 38.2089 32.7163 38.3183 32.7163C38.4204 32.7163 38.508 32.7687 38.5518 32.8509C38.5882 32.9033 38.5882 32.9481 38.5882 33.0977V33.6286Z" fill="white"/>
<path d="M42.6149 33.1875C42.965 33.5314 43.1401 33.9726 43.1401 34.526C43.1401 35.4682 42.4252 36.2609 41.5717 36.2609C40.7037 36.2609 40.0034 35.4757 40.0034 34.4961C40.0034 33.5314 40.7037 32.7388 41.5717 32.7388C41.9584 32.7388 42.3231 32.8958 42.6149 33.1875ZM40.5724 34.4961C40.5724 35.1467 41.0247 35.6851 41.579 35.6851C42.1261 35.6851 42.5857 35.1467 42.5857 34.5185C42.5857 33.853 42.1334 33.3221 41.579 33.3221C41.0319 33.3146 40.5724 33.853 40.5724 34.4961Z" fill="white"/>
<path d="M44.2924 34.3615C44.2924 33.4342 44.9489 32.7388 45.8243 32.7388C46.1379 32.7388 46.2838 32.7762 46.6777 32.9556C46.7507 32.8509 46.8163 32.821 46.9112 32.821C47.0133 32.821 47.1008 32.8734 47.1519 32.9556C47.1884 33.008 47.1884 33.0528 47.1884 33.1949V33.681C47.1884 33.8306 47.1738 33.8904 47.1373 33.9427C47.079 34.0175 46.9987 34.0624 46.9039 34.0624C46.7434 34.0624 46.6632 33.9801 46.6267 33.7558C46.5975 33.6212 46.5392 33.5389 46.3787 33.4492C46.2255 33.3594 46.0212 33.3146 45.8316 33.3146C45.2553 33.3146 44.8395 33.7558 44.8395 34.3615V34.7279C44.8395 35.3037 45.2699 35.6776 45.9483 35.6776C46.2036 35.6776 46.4297 35.6328 46.5683 35.543C46.6267 35.5056 46.6267 35.5056 46.7799 35.3486C46.8382 35.2888 46.9112 35.2589 46.9841 35.2589C47.1373 35.2589 47.2613 35.3935 47.2613 35.543C47.2613 35.6776 47.1592 35.8272 46.9622 35.9618C46.7142 36.1487 46.3349 36.246 45.9337 36.246C44.9708 36.246 44.2778 35.6103 44.2778 34.7279V34.3615H44.2924Z" fill="white"/>
<path d="M50.2815 35.6029H50.8505C51.0036 35.6029 51.0474 35.6179 51.1058 35.6553C51.186 35.7151 51.2225 35.7974 51.2225 35.8946C51.2225 36.0815 51.0985 36.1862 50.8505 36.1862H49.1508C48.9028 36.1862 48.7788 36.089 48.7788 35.8946C48.7788 35.7974 48.8299 35.7002 48.9101 35.6478C48.9612 35.6104 48.9976 35.6104 49.1435 35.6104H49.7125V33.4044H49.1435C49.0049 33.4044 48.9393 33.3895 48.8882 33.3521C48.8226 33.2922 48.7788 33.21 48.7788 33.1128C48.7788 33.0156 48.8299 32.9183 48.9101 32.866C48.9612 32.8286 48.9976 32.8286 49.1435 32.8286H50.8432C50.9964 32.8286 51.0401 32.8436 51.0985 32.881C51.1787 32.9408 51.2152 33.023 51.2152 33.1203C51.2152 33.2175 51.1641 33.3072 51.0766 33.367C51.0328 33.3969 50.9672 33.4044 50.8432 33.4044H50.2742V35.6029H50.2815Z" fill="white"/>
<path d="M53.615 35.6029H55.052V35.3037C55.052 35.1392 55.0666 35.0944 55.1031 35.0345C55.1614 34.9598 55.2417 34.9224 55.3365 34.9224C55.4313 34.9224 55.5189 34.9747 55.5772 35.057C55.6064 35.1018 55.6137 35.1691 55.6137 35.3037V36.1787H52.9658C52.8345 36.1787 52.7542 36.1637 52.7105 36.1188C52.6302 36.0665 52.5938 35.9842 52.5938 35.887C52.5938 35.7898 52.6448 35.7001 52.7323 35.6403C52.7834 35.6029 52.8272 35.6029 52.9658 35.6029H53.0533V33.3969H52.9658C52.8272 33.3969 52.7615 33.3819 52.7105 33.3445C52.6302 33.2847 52.5938 33.2024 52.5938 33.1052C52.5938 33.008 52.6448 32.9183 52.7323 32.8584C52.7834 32.821 52.8199 32.821 52.9658 32.821H55.4897V33.6885C55.4897 33.8455 55.4751 33.8979 55.4386 33.9502C55.3803 34.025 55.3 34.0699 55.2052 34.0699C55.1104 34.0699 55.0228 34.0175 54.9645 33.9353C54.9353 33.8829 54.928 33.8231 54.928 33.6885V33.3969H53.615V34.212H54.0891V34.1746C54.0891 34.0175 54.1037 33.9652 54.1402 33.9128C54.1986 33.8381 54.2788 33.7932 54.3663 33.7932C54.4758 33.7932 54.5925 33.868 54.6216 33.9727C54.6362 34.025 54.6435 34.0549 54.6435 34.182V34.8326C54.6435 34.9897 54.6289 35.042 54.5925 35.0944C54.5341 35.1691 54.4539 35.2065 54.359 35.2065C54.2642 35.2065 54.1767 35.1542 54.1256 35.0719C54.0891 35.0196 54.0891 34.9672 54.0891 34.8326V34.7952H53.615V35.6029Z" fill="white"/>
<path d="M58.6995 35.6028H59.0715C59.2247 35.6028 59.2685 35.6178 59.3268 35.6551C59.4071 35.715 59.4436 35.7972 59.4436 35.8944C59.4436 36.0814 59.3196 36.1861 59.0715 36.1861H57.7731C57.6418 36.1861 57.5689 36.1711 57.5178 36.1263C57.4448 36.0739 57.4011 35.9842 57.4011 35.8944C57.4011 35.7972 57.4521 35.7 57.5324 35.6477C57.5834 35.6103 57.6199 35.6103 57.7658 35.6103H58.1305V33.4043H57.5324V33.9427C57.5324 34.0997 57.5178 34.1446 57.4813 34.2044C57.423 34.2792 57.3427 34.3241 57.2479 34.3241C57.1531 34.3241 57.0582 34.2717 57.0072 34.1895C56.978 34.1446 56.9707 34.0773 56.9707 33.9502V32.8359H59.8666V33.9502C59.8666 34.1147 59.8593 34.1521 59.8156 34.2119C59.7572 34.2867 59.677 34.3315 59.5822 34.3315C59.4873 34.3315 59.3925 34.2792 59.3414 34.1969C59.3123 34.1521 59.305 34.0848 59.305 33.9576V33.4192H58.6922V35.6028H58.6995Z" fill="white"/>
<path d="M62.9153 35.6027H63.2801C63.4405 35.6027 63.4843 35.6177 63.5354 35.6551C63.6156 35.7149 63.6521 35.7972 63.6521 35.8944C63.6521 35.9916 63.601 36.0813 63.5135 36.1412C63.477 36.1636 63.3895 36.1785 63.2728 36.1785H61.9816C61.843 36.1785 61.7701 36.1636 61.7263 36.1187C61.6534 36.0664 61.6096 35.9841 61.6096 35.8869C61.6096 35.7897 61.6607 35.6925 61.7409 35.6401C61.792 35.6027 61.8284 35.6027 61.9816 35.6027H62.3463V34.7652L61.4199 33.3967C61.1865 33.3967 61.0625 33.292 61.0625 33.1051C61.0625 33.0079 61.1136 32.9181 61.1938 32.8583C61.2303 32.8359 61.3762 32.806 61.4272 32.8209H61.4345H61.9379C62.091 32.8209 62.1421 32.8359 62.1932 32.8733C62.2661 32.9331 62.3026 33.0153 62.3026 33.1126C62.3026 33.2472 62.2369 33.3294 62.091 33.3967L62.6235 34.1819L63.1487 33.3967C62.9956 33.3369 62.9226 33.2472 62.9226 33.1126C62.9226 33.0153 62.9737 32.9181 63.0539 32.8658C63.105 32.8284 63.156 32.8284 63.2946 32.8284H63.8126C63.9657 32.8284 64.0168 32.8434 64.0679 32.8807C64.1408 32.9406 64.1773 33.0228 64.1773 33.12C64.1773 33.2322 64.1043 33.3444 64.0022 33.3818C63.9584 33.3967 63.922 33.4042 63.8126 33.4042L62.8934 34.7727V35.6027H62.9153Z" fill="white"/>
<path d="M69.7651 34.3615C69.7651 33.4342 70.4216 32.7388 71.2896 32.7388C71.6033 32.7388 71.7492 32.7762 72.1431 32.9556C72.2161 32.8509 72.2817 32.821 72.3765 32.821C72.4787 32.821 72.5662 32.8734 72.6173 32.9556C72.6537 33.008 72.6537 33.0528 72.6537 33.1949V33.681C72.6537 33.8306 72.6391 33.8904 72.6027 33.9427C72.5443 34.0175 72.4641 34.0624 72.3692 34.0624C72.2088 34.0624 72.1285 33.9801 72.092 33.7558C72.0629 33.6212 72.0118 33.5389 71.844 33.4492C71.6908 33.3594 71.4866 33.3146 71.2969 33.3146C70.728 33.3146 70.3049 33.7558 70.3049 34.3615V34.7279C70.3049 35.3037 70.7353 35.6776 71.4136 35.6776C71.669 35.6776 71.8878 35.6328 72.0337 35.543C72.092 35.5056 72.092 35.5056 72.2452 35.3486C72.3036 35.2888 72.3765 35.2589 72.4495 35.2589C72.6027 35.2589 72.734 35.3935 72.734 35.543C72.734 35.6776 72.6318 35.8272 72.4349 35.9618C72.1869 36.1487 71.8148 36.246 71.4064 36.246C70.4435 36.246 69.7505 35.6103 69.7505 34.7279V34.3615H69.7651Z" fill="white"/>
<path d="M74.8786 35.6029H76.3157V35.3037C76.3157 35.1392 76.3303 35.0944 76.3667 35.0345C76.4251 34.9598 76.5053 34.9224 76.6002 34.9224C76.695 34.9224 76.7825 34.9747 76.8409 35.057C76.8701 35.1018 76.8774 35.1691 76.8774 35.3037V36.1787H74.2294C74.0981 36.1787 74.0179 36.1637 73.9741 36.1189C73.8939 36.0665 73.8574 35.9843 73.8574 35.887C73.8574 35.7898 73.9085 35.7001 73.9887 35.6403C74.0398 35.6029 74.0835 35.6029 74.2221 35.6029H74.3024V33.3969H74.2221C74.0835 33.3969 74.0179 33.3819 73.9668 33.3445C73.8866 33.2847 73.8501 33.2024 73.8501 33.1052C73.8501 33.008 73.9012 32.9183 73.9814 32.8584C74.0325 32.821 74.0689 32.821 74.2148 32.821H76.7388V33.6885C76.7388 33.8455 76.7242 33.8979 76.6877 33.9502C76.6293 34.025 76.5491 34.0699 76.4543 34.0699C76.3594 34.0699 76.2719 34.0175 76.2136 33.9353C76.1844 33.8829 76.1771 33.8231 76.1771 33.6885V33.3969H74.864V34.212H75.3455V34.1746C75.3455 34.0175 75.3601 33.9652 75.3966 33.9128C75.4549 33.8381 75.5352 33.7932 75.6227 33.7932C75.7321 33.7932 75.8488 33.868 75.878 33.9727C75.8926 34.025 75.8999 34.0549 75.8999 34.182V34.8326C75.8999 34.9897 75.8853 35.042 75.8488 35.0944C75.7905 35.1691 75.7102 35.2065 75.6154 35.2065C75.5206 35.2065 75.433 35.1542 75.382 35.0719C75.3455 35.0196 75.3455 34.9672 75.3455 34.8326V34.7952H74.864V35.6029H74.8786Z" fill="white"/>
<path d="M78.9709 35.6027H79.1679C79.3211 35.6027 79.3721 35.6177 79.4232 35.6551C79.4962 35.7149 79.5326 35.7971 79.5326 35.8944C79.5326 36.0813 79.4086 36.186 79.1606 36.186H78.4384C78.2998 36.186 78.2269 36.171 78.1831 36.1262C78.1102 36.0738 78.0664 35.9916 78.0664 35.8944C78.0664 35.7074 78.1831 35.6102 78.4093 35.6102V33.4042H78.3217C78.1831 33.4042 78.1175 33.3892 78.0664 33.3518C77.9935 33.292 77.9497 33.2097 77.9497 33.1125C77.9497 33.0153 78.0008 32.9181 78.081 32.8658C78.1321 32.8284 78.1685 32.8284 78.3144 32.8284H78.9637L80.4153 35.0867V33.4042H80.2183C80.0724 33.4042 80.0141 33.3892 79.963 33.3518C79.8974 33.292 79.8536 33.2097 79.8536 33.1125C79.8536 33.0153 79.9046 32.9181 79.9849 32.8658C80.036 32.8284 80.0724 32.8284 80.2183 32.8284H80.9478C81.101 32.8284 81.1447 32.8433 81.2031 32.8807C81.276 32.9405 81.3125 33.0228 81.3125 33.12C81.3125 33.307 81.1958 33.4117 80.9697 33.4117V36.1935H80.4153L78.9637 33.9276V35.6027H78.9709Z" fill="white"/>
<path d="M84.1717 35.6028H84.5437C84.6969 35.6028 84.7407 35.6178 84.799 35.6551C84.8793 35.715 84.9157 35.7972 84.9157 35.8944C84.9157 36.0814 84.7917 36.1861 84.5437 36.1861H83.2453C83.114 36.1861 83.0337 36.1711 82.99 36.1263C82.917 36.0739 82.8733 35.9842 82.8733 35.8944C82.8733 35.7972 82.9243 35.7 83.0046 35.6477C83.0556 35.6103 83.0921 35.6103 83.238 35.6103H83.6027V33.4043H83.0046V33.9427C83.0046 34.0997 82.99 34.1446 82.9535 34.2044C82.8951 34.2792 82.8149 34.3241 82.7201 34.3241C82.6252 34.3241 82.5304 34.2717 82.4793 34.1895C82.4502 34.1446 82.4429 34.0773 82.4429 33.9502V32.8359H85.3461V33.9502C85.3461 34.1147 85.3388 34.1521 85.2951 34.2119C85.2367 34.2867 85.1565 34.3315 85.0616 34.3315C84.9668 34.3315 84.872 34.2792 84.8209 34.1969C84.7917 34.1521 84.7844 34.0848 84.7844 33.9576V33.4192H84.1717V35.6028Z" fill="white"/>
<path d="M87.5129 35.6029H88.9499V35.3037C88.9499 35.1392 88.9645 35.0944 89.001 35.0345C89.0593 34.9598 89.1396 34.9224 89.2344 34.9224C89.3292 34.9224 89.4168 34.9747 89.4751 35.057C89.5043 35.1018 89.5116 35.1691 89.5116 35.3037V36.1787H86.8637C86.7324 36.1787 86.6522 36.1637 86.6084 36.1189C86.5281 36.0665 86.4917 35.9843 86.4917 35.887C86.4917 35.7898 86.5427 35.7001 86.623 35.6403C86.674 35.6029 86.7178 35.6029 86.8564 35.6029H86.9366V33.3969H86.8564C86.7178 33.3969 86.6522 33.3819 86.6011 33.3445C86.5209 33.2847 86.4844 33.2024 86.4844 33.1052C86.4844 33.008 86.5354 32.9183 86.6157 32.8584C86.6667 32.821 86.7032 32.821 86.8491 32.821H89.373V33.6885C89.373 33.8455 89.3584 33.8979 89.3219 33.9502C89.2636 34.025 89.1833 34.0699 89.0885 34.0699C88.9937 34.0699 88.9062 34.0175 88.8478 33.9353C88.8186 33.8829 88.8113 33.8231 88.8113 33.6885V33.3969H87.4983V34.212H87.9798V34.1746C87.9798 34.0175 87.9943 33.9652 88.0308 33.9128C88.0892 33.8381 88.1694 33.7932 88.2569 33.7932C88.3664 33.7932 88.4831 33.868 88.5123 33.9727C88.5268 34.025 88.5341 34.0549 88.5341 34.182V34.8326C88.5341 34.9897 88.5196 35.042 88.4831 35.0944C88.4247 35.1691 88.3445 35.2065 88.2497 35.2065C88.1548 35.2065 88.0673 35.1542 88.0162 35.0719C87.9798 35.0196 87.9798 34.9672 87.9798 34.8326V34.7952H87.4983V35.6029H87.5129Z" fill="white"/>
<path d="M91.7215 35.6029H91.9184C92.0716 35.6029 92.1227 35.6178 92.1738 35.6552C92.2467 35.715 92.2832 35.7973 92.2832 35.8945C92.2832 35.9917 92.2321 36.0889 92.1519 36.1413C92.1154 36.1637 92.0279 36.1787 91.9184 36.1787H91.0796C90.9483 36.1787 90.868 36.1637 90.8243 36.1189C90.7586 36.0665 90.7148 35.9843 90.7148 35.887C90.7148 35.7898 90.7659 35.6926 90.8461 35.6403C90.8972 35.6029 90.9483 35.6029 91.0796 35.6029H91.1598V33.3969H91.0796C90.941 33.3969 90.8753 33.3819 90.8243 33.3445C90.7586 33.2847 90.7148 33.2024 90.7148 33.1052C90.7148 33.008 90.7659 32.9108 90.8461 32.8584C90.8972 32.821 90.9337 32.821 91.0796 32.821H92.3342C93.0637 32.821 93.567 33.2398 93.567 33.8455C93.567 34.212 93.3774 34.4812 92.9616 34.713C93.2242 34.9523 93.4357 35.214 93.6691 35.6029H93.7421C93.9026 35.6029 93.9463 35.6178 93.9974 35.6552C94.063 35.7076 94.1068 35.7973 94.1068 35.8945C94.1068 35.9917 94.0557 36.0889 93.9755 36.1413C93.939 36.1637 93.8515 36.1787 93.7421 36.1787H93.2971C93.0199 35.6178 92.502 34.9897 92.2613 34.8999H91.7215V35.6029ZM92.1519 34.3241C92.626 34.3241 92.9689 34.1147 92.9689 33.8306C92.9689 33.5838 92.7135 33.3969 92.3488 33.3969H91.7215V34.3241H92.1519Z" fill="white"/>
<path d="M102.233 33.6286C102.233 33.7931 102.219 33.838 102.182 33.8904C102.124 33.9726 102.044 34.01 101.956 34.01C101.876 34.01 101.803 33.9726 101.752 33.9277C101.715 33.8829 101.715 33.8829 101.672 33.6959C101.62 33.4641 101.351 33.3071 101 33.3071C100.643 33.3071 100.366 33.494 100.366 33.7483C100.366 33.8679 100.453 34.0025 100.57 34.0623C100.679 34.1222 100.709 34.1297 101.132 34.2119C101.62 34.3016 101.832 34.3839 102.007 34.526C102.233 34.7129 102.335 34.9373 102.335 35.2439C102.335 35.8421 101.817 36.2459 101.051 36.2459C100.745 36.2459 100.453 36.1711 100.176 36.0216C100.081 36.1338 100.045 36.1562 99.95 36.1562C99.7531 36.1562 99.6655 36.0365 99.6655 35.7748V35.3934C99.6655 35.1317 99.7531 35.0121 99.9427 35.0121C100.023 35.0121 100.096 35.042 100.147 35.0943C100.183 35.1317 100.183 35.1317 100.234 35.2887C100.293 35.4981 100.636 35.6626 101.015 35.6626C101.438 35.6626 101.759 35.4757 101.759 35.2214C101.759 35.1018 101.679 34.9821 101.555 34.9148C101.438 34.855 101.351 34.8251 100.964 34.7578C100.599 34.698 100.417 34.6382 100.242 34.5335C99.9573 34.3689 99.7822 34.0624 99.7822 33.7333C99.7822 33.1426 100.3 32.7163 101 32.7163C101.285 32.7163 101.533 32.7761 101.73 32.9033C101.788 32.7612 101.839 32.7163 101.949 32.7163C102.051 32.7163 102.138 32.7687 102.182 32.8509C102.219 32.9033 102.219 32.9481 102.219 33.0977V33.6286H102.233Z" fill="white"/>
<path d="M104.976 35.6029H106.187V35.072C106.187 34.9075 106.201 34.8626 106.238 34.8103C106.296 34.728 106.376 34.6906 106.471 34.6906C106.573 34.6906 106.654 34.743 106.712 34.8327C106.748 34.8851 106.748 34.9374 106.748 35.0795V36.1862H104.101C103.853 36.1862 103.729 36.089 103.729 35.8946C103.729 35.7899 103.78 35.7002 103.86 35.6478C103.911 35.6104 103.947 35.6104 104.093 35.6104H104.414V33.4044H104.093C103.955 33.4044 103.889 33.3895 103.838 33.3521C103.765 33.2922 103.729 33.21 103.729 33.1128C103.729 33.0156 103.78 32.9183 103.86 32.866C103.911 32.8286 103.947 32.8286 104.093 32.8286H105.297C105.45 32.8286 105.494 32.8436 105.552 32.881C105.632 32.9408 105.669 33.023 105.669 33.1203C105.669 33.2175 105.618 33.3072 105.538 33.367C105.494 33.3969 105.428 33.4044 105.304 33.4044H104.983V35.6029H104.976Z" fill="white"/>
<path d="M110.469 33.1875C110.826 33.5314 110.994 33.9726 110.994 34.526C110.994 35.4682 110.279 36.2609 109.426 36.2609C108.558 36.2609 107.857 35.4757 107.857 34.4961C107.857 33.5314 108.558 32.7388 109.426 32.7388C109.812 32.7388 110.177 32.8958 110.469 33.1875ZM108.426 34.4961C108.426 35.1467 108.879 35.6851 109.433 35.6851C109.98 35.6851 110.44 35.1467 110.44 34.5185C110.44 33.853 109.987 33.3221 109.433 33.3221C108.886 33.3146 108.426 33.853 108.426 34.4961Z" fill="white"/>
<path d="M114.473 33.3969H114.342C114.189 33.3969 114.145 33.3819 114.087 33.3445C114.014 33.2847 113.977 33.2024 113.977 33.1052C113.977 33.008 114.028 32.9108 114.108 32.8584C114.16 32.821 114.196 32.821 114.342 32.821H115.086C115.232 32.821 115.29 32.836 115.341 32.8734C115.407 32.9332 115.451 33.0155 115.451 33.1127C115.451 33.2249 115.378 33.3445 115.276 33.3744C115.225 33.3894 115.195 33.3969 115.071 33.3969L113.919 36.1787H113.364L112.226 33.3969C112.102 33.3969 112.066 33.3894 112.022 33.3744C111.92 33.337 111.847 33.2249 111.847 33.1127C111.847 33.0155 111.898 32.9183 111.986 32.8659C112.037 32.8285 112.073 32.8285 112.219 32.8285H112.963C113.109 32.8285 113.167 32.8435 113.219 32.8809C113.284 32.9407 113.328 33.023 113.328 33.1202C113.328 33.2174 113.277 33.3146 113.197 33.3669C113.146 33.3969 113.102 33.4043 112.963 33.4043H112.854L113.664 35.3561L114.473 33.3969Z" fill="white"/>
<path d="M118.135 35.6029H118.704C118.858 35.6029 118.901 35.6179 118.96 35.6553C119.04 35.7151 119.077 35.7974 119.077 35.8946C119.077 36.0815 118.952 36.1862 118.704 36.1862H117.005C116.757 36.1862 116.633 36.089 116.633 35.8946C116.633 35.7974 116.684 35.7002 116.764 35.6478C116.815 35.6104 116.852 35.6104 116.998 35.6104H117.567V33.4044H116.998C116.859 33.4044 116.793 33.3895 116.742 33.3521C116.677 33.2922 116.633 33.21 116.633 33.1128C116.633 33.0156 116.684 32.9183 116.764 32.866C116.815 32.8286 116.852 32.8286 116.998 32.8286H118.697C118.85 32.8286 118.894 32.8436 118.953 32.881C119.033 32.9408 119.069 33.023 119.069 33.1203C119.069 33.2175 119.018 33.3072 118.938 33.367C118.894 33.3969 118.828 33.4044 118.704 33.4044H118.135V35.6029Z" fill="white"/>
<path d="M121.381 35.2664L121.25 35.6029H121.381C121.534 35.6029 121.578 35.6178 121.637 35.6552C121.709 35.715 121.746 35.7973 121.746 35.8945C121.746 35.9917 121.695 36.0815 121.615 36.1413C121.571 36.1712 121.498 36.1787 121.381 36.1787H120.637C120.389 36.1787 120.265 36.0889 120.265 35.887C120.265 35.7898 120.316 35.6926 120.404 35.6403C120.455 35.6029 120.506 35.6029 120.644 35.6029L121.513 33.3969H121.155C121.009 33.3969 120.951 33.3819 120.9 33.3445C120.827 33.2847 120.783 33.2024 120.783 33.1052C120.783 33.008 120.834 32.9183 120.914 32.8584C120.965 32.821 121.002 32.821 121.155 32.821H122.366L123.482 35.6029C123.643 35.6029 123.686 35.6178 123.752 35.6552C123.825 35.715 123.861 35.7973 123.861 35.8945C123.861 36.0889 123.737 36.1862 123.489 36.1862H122.709C122.57 36.1862 122.505 36.1712 122.454 36.1263C122.388 36.074 122.344 35.9917 122.344 35.8945C122.344 35.7973 122.395 35.7001 122.475 35.6477C122.526 35.6103 122.563 35.6103 122.709 35.6103H122.84L122.709 35.2738H121.381V35.2664ZM122.052 33.5838L121.607 34.6905H122.49L122.052 33.5838Z" fill="white"/>
<path d="M125.561 35.603H125.758C125.911 35.603 125.962 35.6179 126.014 35.6553C126.086 35.7151 126.123 35.7974 126.123 35.8946C126.123 36.0815 125.999 36.1862 125.751 36.1862H125.029C124.89 36.1862 124.817 36.1713 124.773 36.1264C124.701 36.0741 124.657 35.9918 124.657 35.8946C124.657 35.7076 124.773 35.6104 125 35.6104V33.4044H124.912C124.773 33.4044 124.708 33.3895 124.657 33.3521C124.584 33.2922 124.54 33.21 124.54 33.1128C124.54 33.0156 124.591 32.9183 124.671 32.866C124.722 32.8286 124.759 32.8286 124.905 32.8286H125.554L127.006 35.087V33.4044H126.809C126.663 33.4044 126.604 33.3895 126.553 33.3521C126.488 33.2922 126.444 33.21 126.444 33.1128C126.444 33.0156 126.495 32.9183 126.575 32.866C126.626 32.8286 126.663 32.8286 126.809 32.8286H127.538C127.691 32.8286 127.735 32.8436 127.793 32.881C127.866 32.9408 127.903 33.023 127.903 33.1203C127.903 33.3072 127.786 33.4119 127.56 33.4119V36.1937H127.006L125.554 33.9279V35.603H125.561Z" fill="white"/>
<path d="M131.711 33.6286C131.711 33.7931 131.696 33.838 131.66 33.8904C131.601 33.9726 131.521 34.01 131.434 34.01C131.353 34.01 131.28 33.9726 131.229 33.9277C131.193 33.8829 131.193 33.8829 131.149 33.6959C131.098 33.4641 130.828 33.3071 130.478 33.3071C130.121 33.3071 129.843 33.494 129.843 33.7483C129.843 33.8679 129.931 34.0025 130.048 34.0623C130.157 34.1222 130.186 34.1297 130.609 34.2119C131.098 34.3016 131.31 34.3839 131.485 34.526C131.711 34.7129 131.813 34.9373 131.813 35.2439C131.813 35.8421 131.295 36.2459 130.529 36.2459C130.223 36.2459 129.931 36.1711 129.654 36.0216C129.559 36.1338 129.522 36.1562 129.428 36.1562C129.231 36.1562 129.143 36.0365 129.143 35.7748V35.3934C129.143 35.1317 129.231 35.0121 129.42 35.0121C129.501 35.0121 129.573 35.042 129.625 35.0943C129.661 35.1317 129.661 35.1317 129.712 35.2887C129.77 35.4981 130.113 35.6626 130.493 35.6626C130.916 35.6626 131.237 35.4757 131.237 35.2214C131.237 35.1018 131.156 34.9821 131.032 34.9148C130.916 34.855 130.828 34.8251 130.442 34.7578C130.077 34.698 129.894 34.6382 129.719 34.5335C129.435 34.3689 129.26 34.0624 129.26 33.7333C129.26 33.1426 129.778 32.7163 130.478 32.7163C130.762 32.7163 131.01 32.7761 131.207 32.9033C131.266 32.7612 131.317 32.7163 131.426 32.7163C131.528 32.7163 131.616 32.7687 131.66 32.8509C131.696 32.9033 131.696 32.9481 131.696 33.0977V33.6286H131.711Z" fill="white"/>
<path d="M134.103 35.6027H134.3C134.453 35.6027 134.504 35.6177 134.556 35.6551C134.628 35.7149 134.665 35.7972 134.665 35.8944C134.665 35.9916 134.614 36.0813 134.534 36.1412C134.497 36.1636 134.41 36.1786 134.3 36.1786H133.461C133.33 36.1786 133.25 36.1636 133.206 36.1187C133.133 36.0664 133.089 35.9841 133.089 35.8869C133.089 35.7897 133.14 35.6925 133.221 35.6401C133.272 35.6027 133.323 35.6027 133.454 35.6027H133.534V33.3967H133.454C133.315 33.3967 133.25 33.3818 133.199 33.3444C133.126 33.2846 133.082 33.2023 133.082 33.1051C133.082 33.0079 133.133 32.9107 133.213 32.8583C133.264 32.8209 133.301 32.8209 133.447 32.8209H134.286C134.439 32.8209 134.49 32.8359 134.541 32.8733C134.607 32.9331 134.65 33.0153 134.65 33.1126C134.65 33.2098 134.599 33.307 134.519 33.3593C134.475 33.3893 134.41 33.3967 134.286 33.3967H134.089V34.2567L135.088 33.3743C134.971 33.3294 134.913 33.2472 134.913 33.1126C134.913 33.0079 134.957 32.9181 135.044 32.8583C135.081 32.8359 135.227 32.806 135.278 32.8209H135.285H135.847C136 32.8209 136.051 32.8359 136.102 32.8733C136.175 32.9331 136.211 33.0153 136.211 33.1126C136.211 33.2995 136.095 33.4042 135.861 33.4042L134.869 34.2866C135.212 34.4736 135.562 34.9522 135.817 35.6102H136C136.153 35.6102 136.204 35.6252 136.255 35.6626C136.328 35.7224 136.365 35.8046 136.365 35.9019C136.365 36.0888 136.241 36.1935 135.993 36.1935H135.373C135.11 35.3709 134.752 34.8101 134.41 34.6979L134.074 34.9895V35.6027H134.103Z" fill="white"/>
</svg>
